<svg width="250" height="91" viewBox="0 0 250 91" fill="none" xmlns="http://www.w3.org/2000/svg">
<g clip-path="url(#clip0_165_2)">
<path d="M115.271 60.4442V43.7775H119.658V60.615C119.658 61.5775 120.075 61.865 120.45 61.865C120.631 61.8712 120.812 61.8501 120.988 61.8025L121.513 65.1067C120.811 65.3801 120.061 65.5077 119.308 65.4817C116.3 65.5108 115.271 63.5067 115.271 60.4442Z" fill="white"/>
<path d="M87.175 55.1108C87.5667 53.89 91.45 45.2775 91.45 45.2775H96.0583V65.1442H91.8917V52.865L88.425 61.7983H85.7917L82.325 52.865V65.1442H78.1583V45.2775H82.7667C82.7667 45.2775 86.65 53.89 87.0417 55.1108H87.175Z" fill="white"/>
<path d="M123.333 60.9483C123.333 57.765 126.008 55.9942 131.863 55.365C131.775 54.04 130.938 53.2233 129.329 53.2233C128.079 53.2233 126.85 53.7567 125.413 54.59L123.854 51.6483C125.73 50.3995 127.922 49.7089 130.175 49.6567C133.963 49.6567 136.058 51.865 136.058 56.4983V65.1442H131.892V63.6817C131.892 63.6817 130.171 65.5108 127.763 65.5108C125.025 65.5108 123.333 63.4983 123.333 60.9483ZM131.879 60.6858V58.0442C128.758 58.4608 127.533 59.4483 127.533 60.5942C127.533 61.5692 128.192 62.0442 129.233 62.0442C130.275 62.0442 131.079 61.4775 131.858 60.6733L131.879 60.6858Z" fill="white"/>
<path d="M99.1333 60.9483C99.1333 57.765 101.804 55.9942 107.663 55.365C107.571 54.04 106.737 53.2233 105.129 53.2233C103.879 53.2233 102.629 53.7567 101.213 54.59L99.6542 51.6483C101.53 50.3983 103.722 49.7075 105.975 49.6567C109.758 49.6567 111.858 51.865 111.858 56.4983V65.1442H107.692V63.6817C107.692 63.6817 105.971 65.5108 103.562 65.5108C100.833 65.5108 99.1333 63.4983 99.1333 60.9483ZM107.679 60.6858V58.0442C104.558 58.4608 103.333 59.4483 103.333 60.5942C103.333 61.5692 103.987 62.0442 105.033 62.0442C106.079 62.0442 106.9 61.4775 107.679 60.6733V60.6858Z" fill="white"/>
<path d="M148.442 43.79V51.09C147.975 50.6033 147.41 50.2224 146.784 49.9729C146.158 49.7235 145.486 49.6114 144.812 49.6442C141.696 49.6442 138.671 52.6317 138.671 57.5608C138.671 62.49 141.05 65.4775 144.729 65.4775C146.746 65.4775 148.3 63.9733 148.442 63.8108V65.09H152.829V43.79H148.442ZM145.871 61.8442C144.171 61.8442 143.167 60.5067 143.167 57.54C143.167 54.6608 144.417 53.3233 145.833 53.3233C146.786 53.338 147.705 53.6743 148.442 54.2775V60.49C147.558 61.4817 146.804 61.8442 145.871 61.8442Z" fill="white"/>
<path d="M156.192 45.4692C156.192 44.0942 157.258 43.1275 158.729 43.1275C160.2 43.1275 161.271 44.0942 161.271 45.4692C161.271 46.8442 160.204 47.8108 158.729 47.8108C157.254 47.8108 156.192 46.8317 156.192 45.4692ZM156.537 50.0233H160.925V65.1442H156.537V50.0233Z" fill="white"/>
<path d="M163.646 57.59C163.646 52.6817 166.738 49.6733 170.454 49.6733C174.671 49.6733 176.996 52.8025 176.996 56.9317C176.998 57.5957 176.937 58.2585 176.813 58.9108H167.954C168.371 61.1067 169.821 62.1108 171.796 62.1108C172.917 62.1108 173.879 61.665 174.963 61.0233L176.446 63.8233C174.903 64.8982 173.076 65.4913 171.196 65.5275C166.817 65.5108 163.646 62.5942 163.646 57.59ZM173.229 55.9233C173.229 54.2567 172.288 53.065 170.533 53.065C169.15 53.065 168.188 54.0108 167.892 55.9233H173.229Z" fill="white"/>
<path d="M78.175 35.44V18.7733H82.5625V35.6192C82.5625 36.5817 82.9792 36.8692 83.3542 36.8692C83.5352 36.8749 83.7161 36.8553 83.8917 36.8108L84.4167 40.115C83.7154 40.3843 82.9674 40.5103 82.2167 40.4858C79.2042 40.5025 78.175 38.4983 78.175 35.44Z" fill="white"/>
<path d="M101.45 35.4067L102.654 40.1358H107.187L101.079 20.2567H96.0542L89.9458 40.1358H94.4833L95.6833 35.4067H101.45ZM96.5708 31.9233L98.4875 24.3858H98.6458L100.563 31.9233H96.5708Z" fill="white"/>
<path d="M108.071 38.39L110.042 35.5983C111.383 36.6358 112.625 37.19 113.862 37.19C115.167 37.19 115.733 36.6775 115.733 35.8858C115.733 34.89 114.267 34.44 112.742 33.8275C110.929 33.1108 108.825 31.8817 108.825 29.3817C108.825 26.5692 111.067 24.6483 114.479 24.6483C116.388 24.6705 118.231 25.3471 119.7 26.565L117.733 29.2525C116.683 28.4733 115.65 27.965 114.617 27.965C113.483 27.965 112.925 28.415 112.925 29.1692C112.925 30.1358 114.312 30.5067 115.842 31.0733C117.717 31.7817 119.829 32.8608 119.829 35.6275C119.829 38.3942 117.717 40.5025 113.75 40.5025C111.677 40.4399 109.681 39.6976 108.071 38.39Z" fill="white"/>
<path d="M121.2 38.39L123.175 35.5983C124.513 36.6358 125.754 37.19 126.992 37.19C128.3 37.19 128.863 36.6775 128.863 35.8858C128.863 34.89 127.396 34.44 125.871 33.8275C124.058 33.1108 121.954 31.8817 121.954 29.3817C121.954 26.5692 124.196 24.6483 127.613 24.6483C129.519 24.6715 131.361 25.348 132.829 26.565L130.867 29.2525C129.813 28.4733 128.783 27.965 127.75 27.965C126.617 27.965 126.058 28.415 126.058 29.1692C126.058 30.1358 127.442 30.5067 128.975 31.0733C130.846 31.7817 132.963 32.8608 132.963 35.6275C132.963 38.3942 130.846 40.5025 126.879 40.5025C124.806 40.4389 122.811 39.6968 121.2 38.39Z" fill="white"/>
<path d="M152.246 25.0275H156.633V27.1775C157.467 25.5108 159.5 24.915 160.533 24.94C161.136 24.9147 161.737 25.0184 162.296 25.2442L161.842 29.3192C161.244 29.0763 160.613 28.9233 159.971 28.865C159.092 28.919 158.265 29.297 157.649 29.9259C157.034 30.5547 156.673 31.3897 156.638 32.2692V40.1358H152.246V25.0275Z" fill="white"/>
<path d="M179.229 25.0275H183.617V26.9233C184.867 25.7025 186.117 24.6442 188.142 24.6442C191.362 24.6442 192.725 26.965 192.725 30.7442V40.1358H188.333V31.3233C188.333 29.1483 187.758 28.465 186.492 28.465C185.392 28.465 184.562 28.99 183.6 29.9358V40.1358H179.229V25.0275Z" fill="white"/>
<path d="M207.917 32.5817C207.917 27.6775 211.008 24.665 214.725 24.665C218.942 24.665 221.267 27.7983 221.267 31.9233C221.269 32.5874 221.208 33.2502 221.083 33.9025H212.229C212.625 36.0983 214.096 37.1025 216.071 37.1025C217.192 37.1025 218.154 36.6567 219.237 36.015L220.721 38.815C219.179 39.8917 217.351 40.485 215.471 40.5192C211.092 40.5025 207.917 37.5858 207.917 32.5817ZM217.5 30.915C217.5 29.2483 216.558 28.0567 214.804 28.0567C213.421 28.0567 212.458 29.0067 212.158 30.915H217.5Z" fill="white"/>
<path d="M163.246 35.9442C163.246 32.7567 165.917 30.9858 171.775 30.3567C171.683 29.0317 170.85 28.215 169.242 28.215C167.992 28.215 166.742 28.7483 165.325 29.5817L163.75 26.64C165.625 25.3899 167.818 24.6992 170.071 24.6483C173.854 24.6483 175.954 26.8567 175.954 31.49V40.1358H171.788V38.6775C171.788 38.6775 170.067 40.5025 167.658 40.5025C164.958 40.5025 163.246 38.49 163.246 35.9442ZM171.792 35.6733V33.0358C168.671 33.4525 167.446 34.4442 167.446 35.5858C167.446 36.5608 168.1 37.0358 169.146 37.0358C170.192 37.0358 171.013 36.4692 171.792 35.6733Z" fill="white"/>
<path d="M88.3333 18.6942C87.425 18.6942 86.1875 19.3858 86.1875 20.6692C86.1842 20.9069 86.2284 21.1428 86.3175 21.3632C86.4067 21.5835 86.539 21.7839 86.7067 21.9523C86.8744 22.1208 87.0741 22.2541 87.2941 22.3443C87.514 22.4344 87.7498 22.4797 87.9875 22.4775C88.0305 22.4798 88.0736 22.4798 88.1167 22.4775C88.0708 23.7942 86.8667 24.5608 86.2625 24.8733L87.4208 26.49C91.25 25.2567 92.0458 18.7192 88.3333 18.6942Z" fill="white"/>
<path d="M144.25 25.0275V35.0275C143.392 36.2192 142.721 36.6942 141.617 36.6942C140.367 36.6942 139.779 36.0108 139.779 33.8358V25.0275H135.392V34.5483C135.392 38.1275 136.921 40.5233 140.042 40.515C140.847 40.5263 141.645 40.3597 142.378 40.0269C143.111 39.6941 143.762 39.2035 144.283 38.59V40.1483H148.633V25.0275H144.25Z" fill="white"/>
<path d="M202.917 36.8858C201.012 36.8858 199.583 35.2192 199.583 32.5817C199.583 29.9442 200.937 28.265 203.046 28.265C203.767 28.2929 204.451 28.5903 204.962 29.0983L207.046 26.2192C205.874 25.1986 204.367 24.6453 202.812 24.665C198.725 24.665 195.158 27.5817 195.158 32.5817C195.158 37.5817 198.287 40.4983 202.421 40.4983C204.213 40.5188 205.95 39.878 207.3 38.6983L205.683 35.6733C204.804 36.39 203.921 36.8858 202.917 36.8858Z" fill="white"/>
<path d="M79.6333 72.34H81.1875L83.625 79.815H82.2208L81.0833 75.8358C80.8458 75.0442 80.625 74.1942 80.4083 73.3733H80.3625C80.1542 74.2067 79.9458 75.04 79.7 75.8358L78.55 79.815H77.1958L79.6333 72.34ZM78.6375 76.7483H82.1583V77.79H78.6375V76.7483Z" fill="white"/>
<path d="M84.4167 80.8275C84.4329 80.5738 84.5163 80.3289 84.6583 80.118C84.8004 79.9071 84.996 79.7379 85.225 79.6275V79.5817C85.0655 79.4837 84.9345 79.3456 84.8453 79.181C84.7561 79.0164 84.7117 78.8313 84.7167 78.6442C84.7318 78.4336 84.7957 78.2294 84.9035 78.0479C85.0113 77.8663 85.1599 77.7124 85.3375 77.5983V77.5525C85.1089 77.3821 84.9221 77.1618 84.7914 76.9084C84.6607 76.655 84.5896 76.3751 84.5834 76.09C84.5834 74.8025 85.6292 74.0733 86.8042 74.0733C87.0876 74.073 87.3692 74.1194 87.6375 74.2108H89.6458V75.19H88.6209C88.8333 75.4574 88.9467 75.7902 88.9417 76.1317C88.9417 77.3817 87.9958 78.0483 86.8083 78.0483C86.5484 78.0461 86.2912 77.9952 86.05 77.8983C85.9639 77.9587 85.8938 78.0393 85.8458 78.133C85.7979 78.2266 85.7736 78.3306 85.775 78.4358C85.775 78.7525 86.0042 78.9442 86.6833 78.9442H87.6834C89.025 78.9442 89.7375 79.3608 89.7375 80.3317C89.7375 81.4358 88.575 82.3108 86.7417 82.3108C85.4167 82.29 84.4167 81.8067 84.4167 80.8275ZM88.475 80.5233C88.475 80.1067 88.1292 79.9608 87.4834 79.9608H86.7167C86.4601 79.9681 86.2038 79.9415 85.9542 79.8817C85.8314 79.9639 85.7297 80.0739 85.6573 80.2028C85.5849 80.3316 85.5439 80.4757 85.5375 80.6233C85.5375 81.1358 86.0875 81.4317 86.9708 81.4317C87.8542 81.4317 88.475 81.0067 88.475 80.5233ZM87.7875 76.09C87.8031 75.953 87.7895 75.8142 87.7477 75.6828C87.7059 75.5514 87.6368 75.4303 87.545 75.3274C87.4531 75.2245 87.3406 75.1422 87.2147 75.0859C87.0889 75.0295 86.9525 75.0004 86.8146 75.0004C86.6767 75.0004 86.5403 75.0295 86.4145 75.0859C86.2886 75.1422 86.1761 75.2245 86.0842 75.3274C85.9924 75.4303 85.9233 75.5514 85.8815 75.6828C85.8397 75.8142 85.8261 75.953 85.8417 76.09C85.8212 76.2297 85.831 76.3722 85.8705 76.5077C85.91 76.6433 85.9782 76.7688 86.0705 76.8756C86.1628 76.9825 86.2771 77.0682 86.4055 77.1269C86.5339 77.1857 86.6734 77.2161 86.8146 77.2161C86.9558 77.2161 87.0953 77.1857 87.2237 77.1269C87.3521 77.0682 87.4664 76.9825 87.5587 76.8756C87.651 76.7688 87.7192 76.6433 87.7587 76.5077C87.7982 76.3722 87.808 76.2297 87.7875 76.09Z" fill="white"/>
<path d="M91.0042 72.465C90.9856 72.2975 91.0183 72.1283 91.0979 71.9798C91.1775 71.8312 91.3002 71.7103 91.45 71.633C91.5997 71.5556 91.7693 71.5255 91.9365 71.5465C92.1037 71.5676 92.2606 71.6388 92.3865 71.7508C92.5124 71.8629 92.6013 72.0104 92.6416 72.1741C92.6819 72.3377 92.6716 72.5097 92.6122 72.6674C92.5527 72.825 92.4469 72.961 92.3086 73.0573C92.1703 73.1536 92.006 73.2056 91.8375 73.2067C91.7329 73.2184 91.6271 73.2079 91.5268 73.176C91.4266 73.1441 91.3341 73.0915 91.2555 73.0216C91.1769 72.9516 91.1139 72.8659 91.0706 72.77C91.0273 72.6741 91.0047 72.5702 91.0042 72.465ZM91.1542 74.19H92.4708V79.8067H91.1542V74.19Z" fill="white"/>
<path d="M94.5375 74.19H95.6167L95.7167 75.1942H95.7542C95.8922 74.8775 96.1135 74.6041 96.3945 74.4031C96.6755 74.2021 97.0057 74.0809 97.35 74.0525C97.5673 74.0415 97.7842 74.0815 97.9833 74.1692L97.7542 75.3108C97.5683 75.2511 97.3744 75.2202 97.1792 75.2192C96.7333 75.2192 96.1917 75.5275 95.8542 76.3817V79.8067H94.5375V74.19Z" fill="white"/>
<path d="M101.492 77.0025C101.492 75.1775 102.742 74.0525 104.079 74.0525C105.6 74.0525 106.4 75.1525 106.4 76.7192C106.401 76.9344 106.381 77.1492 106.342 77.3608H102.779C102.783 77.5737 102.83 77.7835 102.917 77.978C103.003 78.1725 103.128 78.3477 103.283 78.4933C103.439 78.6389 103.621 78.752 103.821 78.8258C104.021 78.8997 104.233 78.9328 104.446 78.9233C104.912 78.9147 105.365 78.7699 105.75 78.5067L106.196 79.34C105.629 79.729 104.959 79.9408 104.271 79.9483C102.708 79.9442 101.492 78.8567 101.492 77.0025ZM105.242 76.465C105.242 75.5983 104.854 75.0733 104.088 75.0733C103.433 75.0733 102.838 75.565 102.742 76.465H105.242Z" fill="white"/>
<path d="M108.046 74.19H109.125L109.225 74.9525H109.263C109.493 74.6864 109.775 74.4696 110.092 74.315C110.408 74.1603 110.752 74.0711 111.104 74.0525C112.308 74.0525 112.833 74.8858 112.833 76.2858V79.8067H111.517V76.4733C111.517 75.5483 111.25 75.1983 110.642 75.1983C110.15 75.1983 109.808 75.4442 109.363 75.8983V79.8233H108.046V74.19Z" fill="white"/>
<path d="M114.279 79.1608L114.892 78.3275C115.319 78.7123 115.867 78.9349 116.442 78.9567C117.054 78.9567 117.342 78.6692 117.342 78.2817C117.342 77.8108 116.733 77.6025 116.133 77.3733C115.396 77.0983 114.558 76.6733 114.558 75.7358C114.558 74.7983 115.342 74.0692 116.6 74.0692C117.28 74.0781 117.938 74.3159 118.467 74.7442L117.863 75.5525C117.517 75.2608 117.085 75.0897 116.633 75.065C116.067 75.065 115.8 75.3317 115.8 75.6858C115.8 76.1275 116.367 76.2983 116.975 76.5192C117.733 76.8025 118.583 77.165 118.583 78.215C118.583 79.1775 117.821 79.9567 116.404 79.9567C115.627 79.9357 114.879 79.6556 114.279 79.1608Z" fill="white"/>
<path d="M119.779 77.0025C119.779 75.1775 121.029 74.0525 122.367 74.0525C123.883 74.0525 124.683 75.1525 124.683 76.7192C124.685 76.9343 124.667 77.1491 124.629 77.3608H121.063C121.067 77.5735 121.114 77.7831 121.201 77.9773C121.288 78.1715 121.413 78.3465 121.568 78.492C121.723 78.6375 121.906 78.7506 122.105 78.8246C122.304 78.8987 122.517 78.9322 122.729 78.9233C123.194 78.9154 123.646 78.7704 124.029 78.5067L124.479 79.34C123.912 79.7283 123.242 79.94 122.554 79.9483C120.996 79.9442 119.779 78.8567 119.779 77.0025ZM123.529 76.465C123.529 75.5983 123.146 75.0733 122.379 75.0733C121.725 75.0733 121.15 75.565 121.033 76.465H123.529Z" fill="white"/>
<path d="M126.333 74.19H127.413L127.513 74.9567H127.55C127.758 74.6948 128.019 74.4792 128.315 74.3236C128.612 74.1679 128.937 74.0756 129.271 74.0525C129.604 74.0255 129.937 74.1098 130.218 74.2922C130.498 74.4747 130.71 74.745 130.821 75.0608C131.358 74.49 131.917 74.0525 132.629 74.0525C133.813 74.0525 134.363 74.8858 134.363 76.2858V79.8067H133.046V76.4733C133.046 75.5483 132.771 75.1983 132.179 75.1983C131.946 75.2299 131.722 75.3082 131.52 75.4285C131.318 75.5488 131.143 75.7086 131.004 75.8983V79.8233H129.688V76.49C129.688 75.565 129.413 75.215 128.825 75.215C128.592 75.2466 128.368 75.3249 128.166 75.4451C127.964 75.5654 127.789 75.7252 127.65 75.915V79.84H126.333V74.19Z" fill="white"/>
<path d="M137.546 79.215H137.5L137.388 79.8067H136.35V71.7317H137.667V73.815L137.629 74.7483C138.069 74.3297 138.644 74.0816 139.25 74.0483C140.654 74.0483 141.463 75.1733 141.463 76.9025C141.463 78.8275 140.317 79.94 139.067 79.94C138.485 79.9036 137.94 79.6438 137.546 79.215ZM140.121 76.9275C140.121 75.8067 139.754 75.1442 138.9 75.1442C138.664 75.161 138.434 75.2254 138.223 75.3335C138.013 75.4416 137.826 75.5912 137.675 75.7733V78.39C137.98 78.6756 138.378 78.8413 138.796 78.8567C139.546 78.8567 140.121 78.1983 140.121 76.9233V76.9275Z" fill="white"/>
<path d="M143.113 78.3608V71.7317H144.429V78.4317C144.429 78.7525 144.575 78.8483 144.713 78.8483C144.781 78.8501 144.85 78.8417 144.917 78.8233L145.083 79.8067C144.861 79.8912 144.625 79.9308 144.388 79.9233C143.454 79.9442 143.113 79.34 143.113 78.3608Z" fill="white"/>
<path d="M146.225 77.0025C146.225 75.1775 147.475 74.0525 148.813 74.0525C150.333 74.0525 151.133 75.1525 151.133 76.7192C151.134 76.9344 151.114 77.1492 151.075 77.3608H147.5C147.504 77.5737 147.551 77.7835 147.638 77.978C147.724 78.1725 147.849 78.3477 148.004 78.4933C148.159 78.6389 148.342 78.752 148.542 78.8258C148.742 78.8997 148.954 78.9328 149.167 78.9233C149.633 78.9147 150.086 78.7699 150.471 78.5067L150.917 79.34C150.349 79.729 149.679 79.9408 148.992 79.9483C147.442 79.9442 146.225 78.8567 146.225 77.0025ZM149.975 76.465C149.975 75.5983 149.592 75.0733 148.825 75.0733C148.171 75.0733 147.575 75.565 147.479 76.465H149.975Z" fill="white"/>
<path d="M153.562 78.1733C153.451 78.1672 153.34 78.1833 153.235 78.2209C153.13 78.2584 153.034 78.3166 152.952 78.3919C152.87 78.4673 152.804 78.5583 152.758 78.6596C152.712 78.7609 152.686 78.8704 152.683 78.9817C152.682 79.0903 152.703 79.198 152.745 79.2983C152.787 79.3986 152.848 79.4893 152.926 79.5649C153.004 79.6406 153.097 79.6995 153.198 79.7382C153.3 79.7769 153.408 79.7945 153.517 79.79H153.617C153.617 80.39 153.2 80.9025 152.462 81.1858L152.75 81.9108C153.266 81.7653 153.72 81.4539 154.042 81.0246C154.363 80.5954 154.535 80.0722 154.529 79.5358C154.546 78.6692 154.187 78.1733 153.562 78.1733Z" fill="white"/>
<path d="M159.104 74.19H160.183L160.283 74.79H160.321C160.781 74.3534 161.38 74.0924 162.013 74.0525C163.417 74.0525 164.221 75.1775 164.221 76.9108C164.221 78.8317 163.071 79.9442 161.825 79.9442C161.285 79.9191 160.771 79.7002 160.379 79.3275L160.417 80.2567V82.0275H159.1L159.104 74.19ZM162.854 76.9275C162.854 75.8067 162.488 75.1442 161.633 75.1442C161.397 75.1619 161.168 75.2267 160.957 75.3348C160.747 75.4428 160.56 75.592 160.408 75.7733V78.39C160.716 78.6749 161.115 78.8405 161.533 78.8567C162.296 78.8567 162.867 78.1983 162.867 76.9233L162.854 76.9275Z" fill="white"/>
<path d="M165.892 74.19H166.971L167.071 75.1942H167.108C167.247 74.8777 167.468 74.6046 167.749 74.4036C168.03 74.2027 168.36 74.0814 168.704 74.0525C168.921 74.0415 169.138 74.0815 169.337 74.1692L169.108 75.3108C168.922 75.2511 168.729 75.2202 168.533 75.2192C168.087 75.2192 167.546 75.5275 167.208 76.3817V79.8067H165.892V74.19Z" fill="white"/>
<path d="M169.846 77.0025C169.846 75.1317 171.117 74.0525 172.517 74.0525C173.917 74.0525 175.187 75.1317 175.187 77.0025C175.187 78.8733 173.917 79.9442 172.517 79.9442C171.117 79.9442 169.846 78.865 169.846 77.0025ZM173.833 77.0025C173.833 75.8775 173.337 75.1275 172.517 75.1275C171.696 75.1275 171.2 75.8775 171.2 77.0025C171.2 78.1275 171.692 78.8692 172.517 78.8692C173.342 78.8692 173.833 78.1275 173.833 77.0025Z" fill="white"/>
<path d="M176.871 77.915V75.2567H176.071V74.2692L176.942 74.2067L177.096 72.6775H178.187V74.2067H179.621V75.2567H178.187V77.9275C178.187 78.59 178.446 78.9108 178.983 78.9108C179.185 78.9019 179.383 78.8597 179.571 78.7858L179.792 79.7525C179.424 79.8851 179.037 79.9555 178.646 79.9608C177.35 79.9442 176.871 79.1233 176.871 77.915Z" fill="white"/>
<path d="M180.638 77.0025C180.638 75.1775 181.888 74.0525 183.225 74.0525C184.742 74.0525 185.542 75.1525 185.542 76.7192C185.544 76.9345 185.525 77.1495 185.483 77.3608H181.921C181.925 77.5737 181.972 77.7835 182.058 77.978C182.145 78.1725 182.27 78.3477 182.425 78.4933C182.58 78.6389 182.763 78.752 182.963 78.8258C183.162 78.8997 183.375 78.9328 183.588 78.9233C184.054 78.9155 184.507 78.7706 184.892 78.5067L185.342 79.34C184.774 79.7283 184.104 79.94 183.417 79.9483C181.854 79.9442 180.638 78.8567 180.638 77.0025ZM184.388 76.465C184.388 75.5983 184.004 75.0733 183.233 75.0733C182.583 75.0733 182.004 75.565 181.892 76.465H184.388ZM182.529 72.6108L184.217 70.615L185.125 71.49L183.188 73.2608L182.529 72.6108Z" fill="white"/>
<path d="M186.738 80.8275C186.755 80.5734 186.839 80.3285 186.981 80.1176C187.124 79.9068 187.32 79.7376 187.55 79.6275V79.5817C187.39 79.4844 187.258 79.3463 187.169 79.1816C187.08 79.0169 187.036 78.8314 187.042 78.6442C187.057 78.4336 187.121 78.2294 187.229 78.0479C187.336 77.8663 187.485 77.7124 187.663 77.5983V77.5525C187.433 77.3787 187.247 77.1545 187.119 76.8973C186.99 76.6401 186.922 76.3567 186.921 76.0692C186.921 74.7817 187.963 74.0525 189.138 74.0525C189.421 74.0526 189.702 74.099 189.971 74.19H191.979V75.1692H190.954C191.167 75.4366 191.28 75.7693 191.275 76.1108C191.275 77.3608 190.329 78.0275 189.138 78.0275C188.878 78.0245 188.621 77.9736 188.379 77.8775C188.294 77.9386 188.224 78.0193 188.176 78.1129C188.129 78.2064 188.104 78.31 188.104 78.415C188.104 78.7317 188.333 78.9233 189.017 78.9233H190C191.342 78.9233 192.054 79.34 192.054 80.3108C192.054 81.415 190.892 82.29 189.058 82.29C187.738 82.29 186.738 81.8067 186.738 80.8275ZM190.8 80.5233C190.8 80.1067 190.45 79.9608 189.808 79.9608H189.038C188.782 79.9677 188.527 79.9411 188.279 79.8817C188.156 79.9639 188.055 80.0739 187.982 80.2028C187.91 80.3316 187.869 80.4757 187.863 80.6233C187.863 81.1358 188.413 81.4317 189.292 81.4317C190.171 81.4317 190.8 81.0067 190.8 80.5233ZM190.113 76.09C190.128 75.953 190.115 75.8142 190.073 75.6828C190.031 75.5514 189.962 75.4302 189.87 75.3274C189.778 75.2245 189.666 75.1422 189.54 75.0859C189.414 75.0295 189.278 75.0004 189.14 75.0004C189.002 75.0004 188.865 75.0295 188.739 75.0859C188.614 75.1422 188.501 75.2245 188.409 75.3274C188.317 75.4302 188.248 75.5514 188.206 75.6828C188.165 75.8142 188.151 75.953 188.167 76.09C188.146 76.2297 188.156 76.3722 188.195 76.5077C188.235 76.6433 188.303 76.7688 188.396 76.8756C188.488 76.9825 188.602 77.0682 188.73 77.1269C188.859 77.1857 188.998 77.2161 189.14 77.2161C189.281 77.2161 189.42 77.1857 189.549 77.1269C189.677 77.0682 189.791 76.9825 189.884 76.8756C189.976 76.7688 190.044 76.6433 190.084 76.5077C190.123 76.3722 190.133 76.2297 190.113 76.09Z" fill="white"/>
<path d="M192.854 77.0025C192.854 75.1775 194.104 74.0525 195.442 74.0525C196.958 74.0525 197.758 75.1525 197.758 76.7192C197.76 76.9343 197.742 77.1491 197.704 77.3608H194.138C194.142 77.5735 194.189 77.7831 194.276 77.9773C194.363 78.1715 194.488 78.3465 194.643 78.492C194.798 78.6375 194.981 78.7506 195.18 78.8246C195.379 78.8987 195.592 78.9322 195.804 78.9233C196.269 78.9154 196.721 78.7704 197.104 78.5067L197.554 79.34C196.987 79.729 196.317 79.9408 195.629 79.9483C194.071 79.9442 192.854 78.8567 192.854 77.0025ZM196.604 76.465C196.604 75.5983 196.221 75.0733 195.454 75.0733C194.8 75.0733 194.225 75.565 194.108 76.465H196.604Z" fill="white"/>
<path d="M199.408 74.19H200.488L200.587 75.1942H200.625C200.763 74.8777 200.985 74.6046 201.266 74.4036C201.547 74.2027 201.877 74.0814 202.221 74.0525C202.438 74.0415 202.655 74.0815 202.854 74.1692L202.625 75.3108C202.439 75.2511 202.245 75.2202 202.05 75.2192C201.604 75.2192 201.062 75.5275 200.725 76.3817V79.8067H199.408V74.19Z" fill="white"/>
<path d="M206.363 77.0025C206.338 76.6201 206.394 76.2368 206.525 75.8768C206.656 75.5168 206.86 75.1879 207.125 74.9108C207.39 74.6336 207.709 74.4143 208.062 74.2666C208.416 74.1189 208.796 74.046 209.179 74.0525C209.787 74.0482 210.374 74.2745 210.821 74.6858L210.179 75.54C209.934 75.2877 209.602 75.1386 209.25 75.1233C208.342 75.1233 207.717 75.8733 207.717 76.9983C207.717 78.1233 208.333 78.865 209.208 78.865C209.639 78.8438 210.049 78.6728 210.367 78.3817L210.904 79.2483C210.398 79.6948 209.746 79.9408 209.071 79.94C207.538 79.9442 206.363 78.865 206.363 77.0025Z" fill="white"/>
<path d="M212.354 71.7317H213.671V73.815L213.617 74.9025C214.081 74.3976 214.727 74.0979 215.412 74.0692C216.617 74.0692 217.142 74.9025 217.142 76.3025V79.8233H215.833V76.49C215.833 75.565 215.571 75.215 214.962 75.215C214.467 75.215 214.129 75.4608 213.679 75.915V79.84H212.362L212.354 71.7317Z" fill="white"/>
<path d="M218.725 78.2983C218.725 77.0942 219.721 76.4692 222.025 76.215C222.025 75.6108 221.767 75.1067 221.008 75.1067C220.441 75.1427 219.895 75.3344 219.429 75.6608L218.946 74.7817C219.629 74.3245 220.428 74.069 221.25 74.0442C222.654 74.0442 223.333 74.9108 223.333 76.4733V79.8067H222.254L222.154 79.1858H222.117C221.647 79.6412 221.028 79.9107 220.375 79.9442C220.156 79.9548 219.937 79.9196 219.732 79.8407C219.527 79.7619 219.341 79.6411 219.186 79.4861C219.031 79.3312 218.909 79.1455 218.83 78.9409C218.751 78.7364 218.715 78.5175 218.725 78.2983ZM222.025 78.2983V77.0483C220.504 77.24 219.996 77.64 219.996 78.2067C219.996 78.7025 220.333 78.9192 220.804 78.9192C221.038 78.9022 221.267 78.839 221.476 78.7331C221.686 78.6273 221.872 78.4809 222.025 78.3025V78.2983Z" fill="white"/>
<path d="M224.896 77.0025C224.872 76.6201 224.927 76.2368 225.058 75.8768C225.189 75.5168 225.394 75.1879 225.658 74.9108C225.923 74.6336 226.242 74.4143 226.596 74.2666C226.949 74.1189 227.329 74.046 227.713 74.0525C228.32 74.0482 228.907 74.2745 229.354 74.6858L228.712 75.54C228.466 75.287 228.132 75.138 227.779 75.1233C226.875 75.1233 226.25 75.8733 226.25 76.9983C226.25 78.1233 226.867 78.865 227.738 78.865C228.169 78.8441 228.581 78.6731 228.9 78.3817L229.433 79.2483C228.928 79.6942 228.278 79.9402 227.604 79.94C226.071 79.9442 224.896 78.865 224.896 77.0025Z" fill="white"/>
<path d="M230.833 77.7108V74.19H232.15V77.5442C232.15 78.465 232.413 78.7942 233.021 78.7942C233.517 78.7942 233.854 78.565 234.271 78.015V74.1692H235.587V79.7858H234.508L234.408 78.9525H234.371C234.166 79.2434 233.895 79.4824 233.581 79.6502C233.267 79.8181 232.918 79.9102 232.563 79.9192C231.35 79.9442 230.833 79.1275 230.833 77.7108Z" fill="white"/>
<path d="M237.538 74.19H238.617L238.717 74.9525H238.75C238.98 74.6857 239.262 74.4684 239.579 74.3137C239.895 74.159 240.24 74.0701 240.592 74.0525C241.792 74.0525 242.321 74.8858 242.321 76.2858V79.8067H241.004V76.4733C241.004 75.5483 240.738 75.1983 240.129 75.1983C239.638 75.1983 239.296 75.4442 238.85 75.8983V79.8233H237.533L237.538 74.19Z" fill="white"/>
<path d="M3.80834 45.7192L3.29167 45.2567C3.52534 45.0374 3.67309 44.7419 3.70834 44.4233C3.70834 44.0983 3.6 43.9317 3.39584 43.9233C3.19167 43.915 3.1 44.1067 2.97917 44.4025L2.73334 44.84C2.65894 45.0368 2.52508 45.2056 2.35034 45.3228C2.1756 45.4401 1.96868 45.5 1.75834 45.4942C1.60924 45.4758 1.46534 45.4278 1.33512 45.3529C1.20489 45.278 1.09098 45.1778 1.00011 45.0582C0.909235 44.9386 0.843236 44.802 0.806005 44.6564C0.768774 44.5109 0.761066 44.3594 0.783335 44.2108C0.802007 43.7917 0.984558 43.3967 1.29167 43.1108L1.76667 43.5275C1.5835 43.7198 1.47428 43.9707 1.45834 44.2358C1.45834 44.5067 1.55 44.6817 1.75 44.69C1.95 44.6983 2.05 44.4775 2.16667 44.1817L2.36667 43.765C2.43524 43.5652 2.56816 43.3938 2.74461 43.2777C2.92106 43.1616 3.13105 43.1073 3.34167 43.1233C3.91667 43.1483 4.39167 43.6525 4.35417 44.4775C4.33003 44.9442 4.13586 45.3859 3.80834 45.7192Z" fill="white"/>
<path d="M0.6 40.7775L0 39.7692L0.558333 39.4233L1.04167 40.4942L0.6 40.7775ZM1.01667 41.5733L1.35417 39.4233L2.00417 39.5192L1.79583 40.89L2.5 40.9983L2.65833 39.84L3.30833 39.94L3.1375 41.09L3.925 41.2067L4.1375 39.7817L4.7875 39.8775L4.45833 42.0775L1.01667 41.5733Z" fill="white"/>
<path d="M3.23752 38.5442C2.12085 38.2608 1.66669 37.34 1.87919 36.5067C1.93003 36.3181 2.01769 36.1416 2.13712 35.9871C2.25655 35.8326 2.40538 35.7033 2.57502 35.6067L2.95835 36.1317C2.85781 36.1875 2.76925 36.2626 2.69776 36.3527C2.62626 36.4428 2.57323 36.5461 2.54169 36.6567C2.42502 37.115 2.73752 37.5858 3.40835 37.7567C4.07919 37.9275 4.58335 37.715 4.70835 37.2233C4.73803 37.1017 4.74224 36.9753 4.72073 36.8519C4.69922 36.7286 4.65245 36.6111 4.58335 36.5067L5.16252 36.2275C5.28622 36.4009 5.36982 36.5997 5.4073 36.8094C5.44477 37.0191 5.43517 37.2345 5.37919 37.44C5.14169 38.2733 4.36669 38.8358 3.23752 38.5442Z" fill="white"/>
<path d="M4.33332 34.8817L2.59583 34.2233L2.87083 33.49L4.68749 34.1775C5.32083 34.4192 5.61666 34.3025 5.75416 33.94C5.89166 33.5775 5.75416 33.2817 5.11666 33.04L3.30416 32.34L3.57083 31.6317L5.31249 32.2942C6.39999 32.7108 6.70416 33.3275 6.38749 34.165C6.07083 35.0025 5.41666 35.2942 4.33332 34.8817Z" fill="white"/>
<path d="M4.25833 29.9817L4.83333 28.8733C5.175 28.2233 5.66666 27.8025 6.40833 28.1858C7.15 28.5692 7.14166 29.2442 6.80416 29.8983L6.5875 30.315L7.69583 30.89L7.33333 31.5858L4.25833 29.9817ZM6.22083 29.6692C6.4125 29.3025 6.35833 29.0233 6.05416 28.865C5.75 28.7067 5.54583 28.865 5.35833 29.2192L5.17083 29.5733L6.0375 30.0233L6.22083 29.6692ZM6.55416 29.9275L6.35833 29.2192L8.60416 29.1358L8.1875 29.915L6.55416 29.9275Z" fill="white"/>
<path d="M6.29584 26.2233L6.7125 25.565L9.62917 27.4442L9.2125 28.1025L6.29584 26.2233Z" fill="white"/>
<path d="M8.48334 24.1442L7.91668 24.9025L7.39584 24.4858L9.02501 22.3442L9.55001 22.7608L8.95834 23.5192L11.1917 25.2233L10.7167 25.8442L8.48334 24.1442Z" fill="white"/>
<path d="M9.85834 21.34L11.3375 19.7525L11.8208 20.1983L10.875 21.215L11.3833 21.69L12.1875 20.8233L12.6708 21.2733L11.8625 22.14L12.45 22.6817L13.4292 21.6275L13.9125 22.0775L12.3958 23.7067L9.85834 21.34ZM9.95417 20.44L10.0292 19.2692L10.6792 19.3108L10.475 20.4525L9.95417 20.44Z" fill="white"/>
<path d="M15.675 19.7733L15.7042 19.0733C16.0198 19.0986 16.3346 19.0147 16.5958 18.8358C16.8583 18.6358 16.9042 18.4192 16.7792 18.2733C16.6542 18.1275 16.4458 18.1692 16.1292 18.2733L15.6583 18.3983C15.4599 18.4696 15.2443 18.4774 15.0412 18.4206C14.8382 18.3639 14.6578 18.2454 14.525 18.0817C14.4426 17.9562 14.3861 17.8157 14.3587 17.6681C14.3313 17.5206 14.3335 17.3691 14.3654 17.2225C14.3972 17.0758 14.4579 16.937 14.544 16.8141C14.63 16.6912 14.7397 16.5867 14.8667 16.5067C15.1979 16.253 15.6147 16.138 16.0292 16.1858V16.815C15.7654 16.803 15.5058 16.8841 15.2958 17.0442C15.0833 17.2067 15.0167 17.4025 15.1375 17.5608C15.2583 17.7192 15.4917 17.6483 15.8042 17.5608L16.2625 17.4317C16.4589 17.3534 16.6757 17.3429 16.8787 17.4018C17.0817 17.4606 17.2593 17.5855 17.3833 17.7567C17.7375 18.2108 17.6625 18.8983 17.0125 19.4025C16.6294 19.6904 16.1517 19.8228 15.675 19.7733Z" fill="white"/>
<path d="M17.8333 16.4442C17.2458 15.4733 17.4583 14.5858 18.25 14.1025C19.0417 13.6192 19.9167 13.8525 20.5208 14.815C21.125 15.7775 20.9083 16.6983 20.1042 17.1817C19.3 17.665 18.4167 17.415 17.8333 16.4442ZM19.8417 15.2317C19.4833 14.6358 19.0083 14.44 18.5917 14.6817C18.175 14.9233 18.1417 15.4317 18.5042 16.0275C18.8667 16.6233 19.3375 16.8608 19.7542 16.6025C20.1708 16.3442 20.2 15.8275 19.8417 15.2317Z" fill="white"/>
<path d="M21.5417 14.2775C21.0542 13.2358 21.4625 12.3108 22.2583 11.94C22.4365 11.8615 22.6286 11.8196 22.8233 11.8167C23.018 11.8138 23.2113 11.8501 23.3917 11.9233L23.2292 12.5525C23.1235 12.506 23.0092 12.482 22.8938 12.482C22.7783 12.482 22.6641 12.506 22.5583 12.5525C22.1417 12.7525 21.9625 13.29 22.2583 13.9192C22.5542 14.5483 23.0333 14.8025 23.5083 14.5858C23.622 14.5275 23.7219 14.4456 23.8017 14.3458C23.8814 14.246 23.939 14.1304 23.9708 14.0067L24.5542 14.2775C24.4974 14.4823 24.3958 14.6719 24.2567 14.8326C24.1176 14.9933 23.9446 15.1211 23.75 15.2067C22.9542 15.5775 22.0333 15.3358 21.5417 14.2775Z" fill="white"/>
<path d="M24.6042 11.015L25.3417 10.7442L26.5375 14.0067L25.8 14.2775L24.6042 11.015Z" fill="white"/>
<path d="M27.725 9.98167L28.6334 9.74001L30.5709 12.8108L29.7708 13.0233L28.8834 11.4442C28.7 11.1358 28.5042 10.7608 28.325 10.4358C28.325 10.815 28.35 11.2275 28.325 11.59V13.4025L27.55 13.6067L27.725 9.98167ZM27.8875 12.04L29.5 11.6233L29.6542 12.2108L28.0417 12.6275L27.8875 12.04Z" fill="white"/>
<path d="M30.9917 9.19417L31.7667 9.07333L32.1833 11.8525L33.5333 11.6483L33.6333 12.2983L31.5042 12.6192L30.9917 9.19417Z" fill="white"/>
<path d="M34.3667 8.7275L36.5333 8.59L36.575 9.24416L35.1917 9.33583L35.2375 10.0275L36.4167 9.9525L36.4583 10.6108L35.2792 10.6733L35.3292 11.4692L36.7667 11.3775L36.8083 12.0358L34.5833 12.19L34.3667 8.7275Z" fill="white"/>
<path d="M40.0417 18.8942C39.9748 18.7979 39.8875 18.7177 39.7859 18.6594C39.6843 18.601 39.571 18.5659 39.4542 18.5567L39.0667 18.5192C38.7958 18.4442 32.9708 18.54 31.6042 19.4192C31.4583 18.4942 31.1417 17.3775 29.5458 17.0358C28.4208 16.7983 25.9958 17.8692 26.8083 20.29C26.8804 20.4894 26.9911 20.6727 27.1341 20.8292C27.2771 20.9858 27.4496 21.1127 27.6417 21.2025C27.85 21.3108 28.1792 21.2608 28.425 21.8942C28.4958 22.0817 28.6333 22.0608 28.7542 22.0233C28.875 21.9858 28.8667 22.0025 29.0125 22.1233C29.0394 22.1498 29.0737 22.1676 29.1109 22.1743C29.148 22.181 29.1864 22.1763 29.2208 22.1608C29.2386 22.1776 29.2596 22.1907 29.2825 22.1993C29.3054 22.2079 29.3297 22.2118 29.3542 22.2108C29.4125 22.2108 29.5458 22.1692 29.5792 22.2108C30.0417 22.5817 30.5792 21.9983 30.7833 21.6317L31.5292 23.8942C31.35 23.74 29.5167 23.2108 28.6375 24.1942C27.8708 25.0275 27.3125 26.19 26.6667 28.1608C26.5799 28.4133 26.431 28.6399 26.2336 28.8197C26.0363 28.9996 25.7969 29.1269 25.5375 29.19C24.5375 29.5567 25.1208 30.0233 25.375 30.0692C26.1533 30.1798 26.9452 30.1487 27.7125 29.9775C28.0833 29.7942 27.8083 28.94 28.2208 28.4108L29.1333 27.2317C29.1657 27.8406 29.0544 28.4487 28.8083 29.0067C28.5083 29.74 27.5958 30.1275 27.325 30.4775C26.8458 31.0942 27.9458 31.1442 28.2375 31.0442C28.9667 30.7942 29.4875 30.8067 29.7917 30.6275C30.2083 30.3858 29.9125 29.7317 30.05 29.465C30.425 28.7233 31.7167 27.1025 31.8625 26.8442C31.8829 26.8107 31.901 26.7759 31.9167 26.74C32.6752 26.9772 33.4681 27.0856 34.2625 27.0608C36.3917 26.8067 36.8667 25.3025 36.65 24.1442C36.4627 23.3732 36.0926 22.6586 35.5708 22.0608C35 21.1525 34.6833 20.6733 34.4958 20.4317C35.1083 20.2858 38.4958 19.3525 38.5083 19.3817C38.6375 19.6567 38.925 19.7192 39.025 19.7983C39.2458 19.9192 39.3708 19.7317 39.2833 19.6775C39.1919 19.6244 39.1192 19.5444 39.075 19.4483C39.3219 19.4458 39.5686 19.4639 39.8125 19.5025C40.05 19.5358 40.2083 19.0067 40.0417 18.8942Z" fill="white"/>
<path fill-rule="evenodd" clip-rule="evenodd" d="M70.1708 39.3275C69.625 36.4108 66.9 34.5983 65.4958 34.0025C64.9986 33.7834 64.4844 33.605 63.9583 33.4692L63.4917 33.315C63.5917 32.6817 64.325 32.6317 64.7667 31.7275C66.0167 29.1608 63.45 27.3525 61.55 27.7692C60.6542 27.9692 60.0292 28.29 59.8833 28.9733C59.8083 29.3442 59.5208 29.3567 59.05 29.8483C58.9 30.0067 59.2333 30.265 59.2875 30.3733C59.2875 30.4025 59.2042 30.54 59.1708 30.6942C59.1375 30.8483 59.1708 30.8233 59.1708 30.8442C59.1096 30.9551 59.0781 31.08 59.0792 31.2067C59.0103 31.343 58.9745 31.4935 58.9745 31.6463C58.9745 31.799 59.0103 31.9495 59.0792 32.0858C59.2702 32.3797 59.4019 32.7081 59.4667 33.0525C59.4667 33.1317 59.4667 33.1733 59.1167 33.0525C59.0292 33.0275 55.5917 32.015 55.2083 31.7567C54.825 31.4983 51.375 27.7733 51 27.0483C50.7958 26.6317 50.5833 26.3858 50.4708 26.3942C49.6667 26.4442 51.0542 27.8942 50.275 27.3983C50.075 27.2692 49.475 26.8483 49.4417 26.815C49.2917 26.6942 49.3292 26.7525 49.2208 26.5775C49.1567 26.4474 49.0675 26.3313 48.9583 26.2358C48.8708 26.1733 48.8167 26.1567 48.7542 26.1733C48.6917 26.19 48.65 26.2942 48.6208 26.3025C48.5751 26.2975 48.529 26.2975 48.4833 26.3025C48.2833 26.3525 48.4333 26.865 48.4833 27.1025C48.6771 27.6429 48.9198 28.1645 49.2083 28.6608C50.0792 29.2608 50.9375 29.765 50.9667 29.7983C51.9042 30.8858 53.0042 32.2483 53.9875 33.2817C54.7708 34.115 58.3458 36.1983 58.4667 36.2525C58.7 36.3942 59.0708 37.1567 58.5375 42.615C58.3375 44.6692 56.8708 49.0358 57.5667 51.2942C58.3336 53.378 58.8402 55.5486 59.075 57.7567C59.1917 58.6525 58.4958 59.1942 57.5 59.915C57.1125 60.1983 56.0208 60.8733 55.9083 60.9733C55.725 61.14 55.9083 61.39 56.1333 61.5067C56.4296 61.6598 56.7375 61.7894 57.0542 61.8942C57.6391 61.9806 58.236 61.8645 58.7458 61.565C59.4708 61.1483 59.5375 61.09 59.9625 60.8317C60.4542 60.5358 61.0458 60.44 61.2125 59.94C61.4167 59.2733 60.8542 58.3192 60.9125 57.8858C61.3292 54.7608 61.8583 53.215 61.0708 51.2983C60.9125 50.915 62.2125 46.74 62.3208 47.3025C62.5208 48.4025 62.6 51.6733 62.6375 54.1067C62.6375 55.1692 63.5083 58.9442 63.7833 60.2983C64.2 62.3817 60.6792 64.0483 61.4542 64.6733C61.769 64.8884 62.1276 65.0307 62.5042 65.09C62.8775 65.1751 63.2677 65.1455 63.6239 65.0049C63.98 64.8644 64.2854 64.6196 64.5 64.3025C65.25 63.3692 65.0208 63.6275 65.6125 62.9608C66.125 62.3858 65.7583 61.3942 65.6917 60.8775C65.5583 59.815 65.6708 59.5358 65.6625 57.6275C65.6225 56.4026 65.7076 55.1768 65.9167 53.9692C66.4708 50.3108 66.8125 48.3233 66.9833 46.7692V46.6817C66.9833 46.6817 67.25 46.7775 67.3667 46.5858C67.4937 46.3255 67.566 46.0419 67.5792 45.7525C67.625 45.5483 67.7083 45.8108 67.7083 45.8108C67.7929 46.0242 67.853 46.2464 67.8875 46.4733C67.8292 46.7846 67.7312 47.0871 67.5958 47.3733C67.4542 47.79 67.8125 47.8483 67.9042 47.8817C68.4178 47.6298 68.8711 47.2703 69.2333 46.8275C69.3437 46.5219 69.3946 46.198 69.3833 45.8733C69.3347 45.1725 69.2344 44.4761 69.0833 43.79C69.4167 42.7108 70.3042 40.0567 70.1708 39.3275ZM67.6708 43.5442C67.5542 44.065 67.5208 43.5692 67.0292 45.4983L67.0833 45.2233C67.0833 44.9525 67.0833 44.6817 67.0833 44.39C67.0833 41.9983 65.2542 36.89 66.3625 37.9775C66.3625 37.9775 67.6958 38.9067 67.9542 39.615C68.1708 40.1775 68.0958 41.7067 67.6708 43.5442Z" fill="white"/>
<path d="M23.0959 49.2525C22.6792 48.8942 21.2417 46.9233 20.3 46.1483C19.8249 45.6277 19.3916 45.0704 19.0042 44.4817C17.3 42.2108 16.9209 42.0817 15.7375 41.8817C15.4959 41.7192 15.575 41.5317 15.6 41.5233C15.804 41.4715 15.9947 41.377 16.1595 41.246C16.3243 41.115 16.4594 40.9506 16.5558 40.7635C16.6523 40.5764 16.708 40.371 16.7192 40.1608C16.7304 39.9506 16.6969 39.7404 16.6209 39.5442C16.55 39.2483 16.75 39.1275 16.7459 38.8442C16.7403 38.4599 16.664 38.0799 16.5209 37.7233C16.568 37.5893 16.5802 37.4455 16.5561 37.3055C16.532 37.1654 16.4726 37.0339 16.3834 36.9233C15.55 35.8733 13.4667 35.8233 12.3959 36.5692C11.5292 37.1692 12.0375 37.5858 11.7667 38.4358C11.6953 38.6696 11.6906 38.9187 11.7532 39.155C11.8158 39.3913 11.9431 39.6055 12.1209 39.7733C12.1625 40.0567 13.0167 40.6067 12.85 41.2067C12.6834 41.8067 11.6667 41.9567 11.6917 41.9567C11.5841 41.9814 11.4804 42.0206 11.3834 42.0733C9.79169 42.9817 8.25002 44.3025 8.05002 45.7567C8.13752 46.9275 9.95002 48.615 11.1167 49.5067C11.2875 51.5025 12.5542 54.5567 12.6125 54.6775C12.7834 55.0442 12.2542 54.4025 10.9792 53.9692C10.3584 53.7608 9.54168 52.915 9.36668 53.9067C9.29168 54.3233 9.47085 55.04 9.07919 55.9317C8.78335 56.6108 9.12918 57.6983 9.87918 57.6775C10.4209 57.6775 10.7417 56.0108 10.7417 56.0108C10.7417 56.0108 13.3625 57.315 14.6125 56.8817C15.3417 56.6275 15.5084 53.7067 14.7875 51.1025C14.5334 50.19 15.2584 52.59 17.0084 54.7025C17.3959 55.1692 17.0542 55.5358 17.3084 57.2733C17.3799 57.6424 17.4092 58.0184 17.3959 58.3942C17.3459 59.2275 16.5417 60.2317 18.3792 60.7025C20.2167 61.1733 20.1 61.6233 21.275 60.8358C21.8 60.4817 19.6584 60.265 19.2417 58.9983C19.2173 58.9082 19.2006 58.8162 19.1917 58.7233C19.1417 57.7233 19.6084 55.39 19.4584 54.6067C18.7917 50.6483 17.1292 48.8192 16.9167 47.8942C16.9167 45.1317 16.7167 44.265 16.9792 44.8858C17.332 45.5262 17.7347 46.1378 18.1834 46.715C18.2459 46.7942 18.3209 46.8775 18.4 46.965C18.5479 47.142 18.7157 47.3014 18.9 47.44C20.0542 48.4483 21.8917 49.6525 22.1375 49.915C22.1375 49.915 22.275 51.1317 22.775 51.0442C23.275 50.9567 25.4292 49.9983 25.3875 49.7567C25.3 49.3067 23.1709 49.3192 23.0959 49.2525ZM11.1042 47.7192C10.7709 47.0775 9.85418 45.8858 9.92085 45.69C10.4292 44.8567 10.975 44.615 11.1375 44.6692C11.3 44.7233 11.1042 47.7192 11.1042 47.7192Z" fill="white"/>
<path d="M59.625 71.6442C59.5292 71.5942 58.2334 71.115 57.0875 69.2817C56.575 68.4483 52.725 61.3275 52.2 59.9358C51.1584 57.1817 43.0334 52.2275 42.6917 51.94C42.45 51.7442 42.4792 51.265 42.5709 50.9525C43.2542 48.6358 42.9875 46.5608 43.1167 46.2483C43.45 45.4608 43.95 44.315 43.5792 43.5692L42.7459 42.2442C42.7459 42.2442 47.0417 43.7983 48.0375 43.59C48.8959 43.4067 53.2209 40.4358 53.4542 40.3067C54.0542 40.0025 55.4917 40.4525 56.9459 38.8692C57.4917 38.2733 57.0959 38.0692 56.9959 38.1733C56.9463 38.0903 56.8663 38.0299 56.773 38.005C56.6796 37.9801 56.5801 37.9927 56.4959 38.04C56.15 38.2358 54.9542 38.5817 55.175 38.4192C56.0417 37.7692 55.4417 37.5858 55.4417 37.5858C55.0625 37.8983 53.3375 38.3358 53.0042 38.6108C52.5875 38.9317 52.35 39.2067 52.1709 39.3192C50.7051 40.142 49.1335 40.7602 47.5 41.1567C47.1334 41.24 43.7042 38.9983 41.7209 38.6942C41.0479 38.5409 40.3465 38.5683 39.6875 38.7733C38.9792 38.9733 39.0334 37.94 39.5584 37.7025C39.8334 37.5733 40.2917 37.49 40.4625 37.14C40.5161 37.0016 40.5408 36.8536 40.5351 36.7053C40.5294 36.557 40.4933 36.4114 40.4292 36.2775C40.4417 36.2374 40.4456 36.1952 40.4406 36.1535C40.4356 36.1119 40.4217 36.0717 40.4 36.0358C40.35 35.915 40.3584 35.9775 40.375 35.8567C40.3917 35.7358 40.3209 35.6983 40.2917 35.5983C40.2768 35.5208 40.287 35.4405 40.3209 35.3692C40.7375 35.0192 40.5584 34.8567 40.5042 34.8067C40.4167 34.6983 39.775 34.4233 39.7209 34.0067C39.646 33.546 39.5057 33.0984 39.3042 32.6775C39.2625 32.5525 39.1917 31.7775 38.85 31.465C38.4334 31.0858 37.5542 30.6317 35.6584 31.1317C35.05 31.2983 35.1625 31.59 33.6375 31.8733C31.8167 32.2108 30.8125 34.9192 30.975 36.04C31.1084 36.9483 31.8875 36.5067 31.8542 36.9108C31.8042 37.54 31.7375 38.5775 33.0709 38.965C33.3584 39.0483 35.1042 38.7692 35.7667 38.8858C35.7667 38.8858 36.3084 38.9317 36.0375 39.4733C35.9042 39.74 34.1542 40.4317 33.725 40.615C32.575 41.09 29.6375 45.9108 28.75 46.365C28.2318 46.6128 27.7356 46.9041 27.2667 47.2358C26.0584 47.9942 24.8792 48.9025 24.2292 48.9025C23.3625 48.8483 22.6584 49.265 22.0792 50.5692C21.9084 50.9525 22.0084 51.1483 22.3209 51.2275C22.386 51.3087 22.4675 51.3751 22.5602 51.4225C22.6528 51.4699 22.7544 51.4972 22.8584 51.5025C23.1167 51.7442 23.4084 51.59 23.6292 51.4733C24.3084 51.1025 24.4625 50.8108 24.7292 50.7025C25.3917 50.4858 29.3125 48.9733 30.1834 48.2983C31.5084 47.5733 34.175 44.8358 34.7667 44.8067C35.3084 44.7567 36.6667 45.9567 36.25 48.265C36.1042 49.0525 35.1209 50.4733 34.5834 51.3025C33.5 52.9442 34.3375 54.3775 34.125 54.7233C33.0042 56.5525 31.625 58.9983 29.3 61.09C28.3959 61.6775 26.4875 61.8108 25.4792 62.1067C23.1625 62.7858 20.6959 64.4483 18.9334 65.44C18.35 65.765 17.7917 65.065 17.0584 64.9817C16.325 64.8983 16.2625 66.0067 15.8875 67.0108C15.7709 67.3192 15.7209 67.465 15.1625 68.7025C14.9417 69.1858 14.3625 70.6775 14.9459 71.2942C15.4792 72.0358 16.7459 69.7108 17.725 68.5775C18.2459 67.9775 18.5584 67.7817 19.6875 67.5233C20.4042 67.3567 26.0834 65.815 29.8334 64.9942C29.925 64.9942 30.025 64.9567 30.1334 64.9275C35.0042 63.6775 40.0542 57.3025 40.1334 57.3317L48.4042 61.4317C49.2375 61.8817 49.2375 63.4942 50.2334 65.3275C50.825 66.4358 51.6959 67.4108 55.2334 70.8733C55.6875 71.3192 55.3125 72.0567 55.5209 72.7442C55.7292 73.4317 56.0875 73.4942 56.75 73.44C57.4125 73.3858 57.9209 73.29 58.5375 73.2483C59.325 73.2025 59.1125 73.2858 60.0334 73.4233C60.4792 73.49 61.5 73.6358 62.2209 72.9192C63.5 71.6275 60.8334 72.2775 59.625 71.6442Z" fill="white"/>
<path d="M50.6458 68.0567C50.6167 67.9972 50.5759 67.9443 50.5259 67.9008C50.476 67.8574 50.4178 67.8245 50.3549 67.8039C50.292 67.7833 50.2256 67.7755 50.1596 67.781C50.0937 67.7865 50.0295 67.8051 49.9708 67.8358C46.2078 69.747 42.0281 70.6909 37.809 70.5825C33.5898 70.4742 29.4641 69.3168 25.8042 67.215C25.7468 67.1767 25.6823 67.1505 25.6145 67.1382C25.5466 67.1258 25.477 67.1275 25.4099 67.1431C25.3427 67.1587 25.2795 67.1879 25.2241 67.2289C25.1687 67.27 25.1223 67.3219 25.0877 67.3816C25.0532 67.4412 25.0312 67.5073 25.0233 67.5758C25.0153 67.6443 25.0214 67.7137 25.0413 67.7797C25.0612 67.8457 25.0944 67.9069 25.1389 67.9596C25.1834 68.0122 25.2382 68.0552 25.3 68.0858C29.1041 70.2691 33.3916 71.4717 37.7762 71.5852C42.1608 71.6987 46.5048 70.7195 50.4167 68.7358C50.4769 68.707 50.5308 68.6664 50.5751 68.6164C50.6195 68.5663 50.6533 68.5079 50.6747 68.4446C50.696 68.3813 50.7045 68.3144 50.6995 68.2477C50.6946 68.1811 50.6763 68.1161 50.6458 68.0567Z" fill="white"/>
<path d="M14.875 34.9608C14.8032 34.9592 14.7325 34.9436 14.6667 34.915C14.5452 34.8596 14.4507 34.7583 14.4039 34.6333C14.357 34.5084 14.3616 34.3699 14.4167 34.2483C16.6746 29.2564 20.4341 25.0934 25.1708 22.34C25.2278 22.2997 25.2926 22.2718 25.361 22.2578C25.4294 22.2439 25.4999 22.2443 25.5681 22.259C25.6363 22.2738 25.7007 22.3025 25.7573 22.3434C25.8138 22.3843 25.8612 22.4366 25.8965 22.4968C25.9318 22.557 25.9543 22.6238 25.9624 22.6931C25.9705 22.7625 25.9642 22.8327 25.9437 22.8994C25.9233 22.9662 25.8892 23.0279 25.8437 23.0808C25.7981 23.1337 25.7421 23.1766 25.6792 23.2067C21.1242 25.8576 17.5091 29.863 15.3375 34.665C15.296 34.7528 15.2306 34.8271 15.1488 34.8794C15.067 34.9318 14.9721 34.96 14.875 34.9608Z" fill="white"/>
<path d="M57.9167 28.5067C57.8456 28.5067 57.7753 28.4915 57.7106 28.462C57.6459 28.4326 57.5883 28.3895 57.5417 28.3358C53.5385 23.8061 48.0519 20.8516 42.0667 20.0025C42.001 19.9932 41.9378 19.971 41.8807 19.9373C41.8236 19.9036 41.7737 19.859 41.7339 19.806C41.6534 19.6989 41.6187 19.5643 41.6375 19.4317C41.6563 19.2991 41.727 19.1793 41.834 19.0989C41.9411 19.0184 42.0757 18.9837 42.2083 19.0025C48.4312 19.8853 54.1353 22.9582 58.2958 27.6692C58.3587 27.7421 58.3994 27.8315 58.413 27.9269C58.4267 28.0222 58.4127 28.1195 58.3729 28.2071C58.333 28.2948 58.2688 28.3692 58.188 28.4215C58.1071 28.4739 58.013 28.502 57.9167 28.5025V28.5067Z" fill="white"/>
</g>
<defs>
<clipPath id="clip0_165_2">
<rect width="250" height="90.88" fill="white"/>
</clipPath>
</defs>
</svg>
