<svg xmlns:xlink="http://www.w3.org/1999/xlink" xmlns="http://www.w3.org/2000/svg" width="80" height="80" viewBox="0 0 80 80"><defs><style>.cls-1{fill:#f5f5f5;}.cls-2{fill:#1f6ba6;}.cls-3{fill:#1c577f;}</style></defs><title>moyen-app</title><g id="Calque_2" data-name="Calque 2"><g id="Calque_1-2" data-name="Calque 1"><circle class="cls-1" cx="40" cy="40" r="40"/><path class="cls-2" d="M52.42,39.7q0,10.23,0,20.44c0,3-1.06,4.09-4.05,4.1q-8.17,0-16.35,0c-2.84,0-4-1.19-4-4q0-20.56,0-41.15c0-2.69,1.29-4,4-4q8.23,0,16.49,0c2.74,0,4,1.25,4,4C52.43,25.89,52.42,32.8,52.42,39.7ZM50.31,39c0-4.6,0-9.21,0-13.81,0-1.34-.47-1.84-1.79-1.83q-8.31.06-16.62,0c-1.31,0-1.82.46-1.81,1.82q.06,13.67,0,27.33c0,1.39.45,1.91,1.86,1.9q8.25-.07,16.48,0c1.4,0,1.9-.48,1.88-1.89C50.27,48,50.31,43.53,50.31,39Zm-10.13,23a2.2,2.2,0,0,0,2.32-2.14,2.35,2.35,0,0,0-2.26-2.38A2.27,2.27,0,0,0,38,59.81,2.16,2.16,0,0,0,40.18,62.07Zm0-42.08c.7,0,1.4,0,2.1,0,.21,0,.41-.3.61-.46-.2-.21-.4-.6-.61-.61-1.39,0-2.8,0-4.19,0-.21,0-.4.39-.6.6.2.17.39.45.6.47C38.83,20,39.53,20,40.23,20Z"/><path class="cls-1" d="M50.31,39c0,4.5,0,9,0,13.52,0,1.41-.48,1.9-1.88,1.89q-8.23-.07-16.48,0c-1.41,0-1.87-.51-1.86-1.9q.06-13.66,0-27.33c0-1.36.5-1.83,1.81-1.82q8.31.06,16.62,0c1.32,0,1.81.49,1.79,1.83C50.27,29.82,50.31,34.43,50.31,39Z"/><path class="cls-3" d="M40.18,62.07A2.16,2.16,0,0,1,38,59.81a2.27,2.27,0,0,1,2.23-2.26,2.35,2.35,0,0,1,2.26,2.38A2.2,2.2,0,0,1,40.18,62.07Z"/><path class="cls-3" d="M40.23,20c-.7,0-1.4,0-2.09,0-.21,0-.4-.3-.6-.47.2-.21.39-.59.6-.6,1.39,0,2.8,0,4.19,0,.21,0,.41.4.61.61-.2.16-.4.44-.61.46C41.63,20,40.93,20,40.23,20Z"/></g></g></svg>