<svg xmlns:xlink="http://www.w3.org/1999/xlink" xmlns="http://www.w3.org/2000/svg" width="80" height="80"><defs><style>.cls-3{fill:#1c577f}</style></defs><g id="Calque_2" data-name="Calque 2"><g id="Calque_1-2" data-name="Calque 1"><circle cx="40" cy="40" r="40" fill="#f5f5f5"/><path d="M44.92 47.31l-.53.7c-.49.63-1.29.66-2.29.25a18.73 18.73 0 01-2.46-1.5 37.56 37.56 0 01-7.18-6.7c-.2-.25-.4-.49-.58-.73-1-1.37-1.3-2.52-.54-3.23.26-.24.54-.48.8-.73a91.56 91.56 0 01-9.4-11c-.35.28-.72.58-1.1.87-1.74 1.32-2.1 3.72-.6 7S26.7 43.77 32.18 48.1a1.59 1.59 0 00.13.13c4.8 5.09 13.55 8.49 16.91 9.68s5.71.62 6.87-1.24c.37-.6.74-1.16 1.08-1.65a72.18 72.18 0 01-12.05-8 2.83 2.83 0 00-.2.29z" fill="#1f6ba6"/><path class="cls-3" d="M57.73 50.38c-1.27-.72-7.49-4.12-9.09-5.17-1.3-.86-2.44.41-3.52 1.82a72.18 72.18 0 0012.05 8c.71-1 1.25-1.75 1.25-1.75.86-1.06.58-2.18-.69-2.9zM32.31 35.23c1.28-1.19 2.39-2.43 1.43-3.62-1.2-1.5-5.15-7.38-6-8.58s-2-1.37-2.94-.42c0 0-.87.8-2.07 1.77a91.56 91.56 0 009.4 11z"/></g></g></svg>