<svg xmlns="http://www.w3.org/2000/svg" width="51.566" height="25.783" viewBox="0 0 51.566 25.783"><defs><style>.a{fill:#1c2f76;}</style></defs><path class="a" d="M2.757,9.372,0,.93H1.178L2.5,5.093c.363,1.14.675,2.164.9,3.158h.025c.236-.98.586-2.044.961-3.145L5.812.936H6.977L3.96,9.372Z" transform="translate(0 -0.338)"/><path class="a" d="M11.274,7.818a1.944,1.944,0,0,0,2.082,2.107,4.057,4.057,0,0,0,1.681-.312l.191.789a4.966,4.966,0,0,1-2.018.376A2.815,2.815,0,0,1,10.23,7.722c0-1.827,1.076-3.272,2.846-3.272a2.573,2.573,0,0,1,2.508,2.858,4.208,4.208,0,0,1-.038.516H11.274ZM14.5,7.028a1.567,1.567,0,0,0-1.528-1.789A1.829,1.829,0,0,0,11.28,7.028Z" transform="translate(-3.717 -1.617)"/><path class="a" d="M19.951,6.474c0-.713-.013-1.324-.051-1.891h.968l.038,1.19h.051A1.816,1.816,0,0,1,22.637,4.45a1.163,1.163,0,0,1,.312.038V5.526a1.625,1.625,0,0,0-.376-.038A1.544,1.544,0,0,0,21.1,6.9a3.073,3.073,0,0,0-.051.516v3.234H19.957V6.474Z" transform="translate(-7.231 -1.617)"/><path class="a" d="M26.852,1.6a.681.681,0,0,1-1.362,0A.669.669,0,0,1,26.178.91a.652.652,0,0,1,.675.688M25.624,3.3h1.108V9.358H25.624Z" transform="translate(-9.263 -0.331)"/><path class="a" d="M29.213,9.034V3.807H28.36v-.84h.853V2.68a2.883,2.883,0,0,1,.7-2.12A2.139,2.139,0,0,1,31.39,0a2.551,2.551,0,0,1,.942.178l-.153.853a1.642,1.642,0,0,0-.7-.134c-.936,0-1.178.828-1.178,1.757v.325h1.464v.84H30.3V9.046H29.213Z" transform="translate(-10.305 0)"/><path class="a" d="M36.572,1.6a.681.681,0,0,1-1.362,0A.669.669,0,0,1,35.9.91a.655.655,0,0,1,.675.688M35.344,3.3h1.1V9.358h-1.1Z" transform="translate(-12.795 -0.331)"/><path class="a" d="M39.6,7.818a1.944,1.944,0,0,0,2.082,2.107,4.057,4.057,0,0,0,1.681-.312l.191.789a4.991,4.991,0,0,1-2.018.376A2.815,2.815,0,0,1,38.56,7.722C38.56,5.9,39.636,4.45,41.4,4.45a2.573,2.573,0,0,1,2.508,2.858,4.207,4.207,0,0,1-.038.516H39.6Zm3.234-.789A1.567,1.567,0,0,0,41.31,5.239a1.829,1.829,0,0,0-1.693,1.789Z" transform="translate(-14.012 -1.617)"/><path class="a" d="M53.3.22V7.547c0,.541.013,1.152.051,1.566h-.987l-.051-1.05H52.29a2.244,2.244,0,0,1-2.069,1.19c-1.464,0-2.591-1.241-2.591-3.081-.013-2.018,1.241-3.259,2.718-3.259a2.024,2.024,0,0,1,1.827.929H52.2V.22Zm-1.1,5.3a1.926,1.926,0,0,0-.051-.465,1.626,1.626,0,0,0-1.592-1.28c-1.14,0-1.814,1-1.814,2.343,0,1.229.6,2.241,1.789,2.241A1.663,1.663,0,0,0,52.15,7.038a1.844,1.844,0,0,0,.051-.471V5.517Z" transform="translate(-17.308 -0.08)"/><path class="a" d="M62.95,9.114C62.975,8.7,63,8.082,63,7.547V.22H64.09V4.027h.025a2.261,2.261,0,0,1,2.069-1.114c1.5,0,2.566,1.254,2.559,3.094,0,2.164-1.369,3.247-2.718,3.247a2.16,2.16,0,0,1-2.031-1.14h-.038l-.051,1Zm1.14-2.432a2.032,2.032,0,0,0,.051.4A1.7,1.7,0,0,0,65.8,8.375c1.152,0,1.84-.942,1.84-2.33,0-1.216-.624-2.254-1.8-2.254a1.766,1.766,0,0,0-1.681,1.35,2.143,2.143,0,0,0-.064.452Z" transform="translate(-22.875 -0.08)"/><path class="a" d="M73.253,4.656l1.324,3.584c.14.4.293.879.388,1.241h.025c.115-.363.242-.828.388-1.267l1.2-3.559h1.165L76.093,8.979c-.789,2.082-1.331,3.145-2.082,3.794a2.99,2.99,0,0,1-1.35.713l-.274-.929a2.87,2.87,0,0,0,.961-.541,3.363,3.363,0,0,0,.929-1.229.78.78,0,0,0,.089-.261.907.907,0,0,0-.076-.286L72.05,4.65h1.2Z" transform="translate(-26.182 -1.69)"/><path class="a" d="M22.047,20.69l-3.342,8.454-1.35-7.187a1.492,1.492,0,0,0-1.477-1.267H10.416l-.076.357A13.539,13.539,0,0,1,13.5,22.1a1.364,1.364,0,0,1,.758,1.095L16.827,33.1H20.22l5.2-12.414Z" transform="translate(-3.757 -7.518)"/><path class="a" d="M34.675,20.69,32.02,33.1h3.215L37.883,20.69Z" transform="translate(-11.635 -7.518)"/><path class="a" d="M45.19,23.993c.006-.446.433-.917,1.362-1.044a6.167,6.167,0,0,1,3.17.554l.56-2.629a8.634,8.634,0,0,0-3-.554c-3.177,0-5.4,1.693-5.43,4.113-.019,1.783,1.6,2.782,2.814,3.38,1.254.6,1.674.993,1.668,1.547-.006.834-1,1.2-1.916,1.21a6.723,6.723,0,0,1-3.3-.783L40.53,32.5a9.79,9.79,0,0,0,3.571.662c3.368,0,5.577-1.668,5.59-4.246.013-3.285-4.533-3.463-4.5-4.927" transform="translate(-14.728 -7.384)"/><path class="a" d="M59.626,28.7l1.706-4.666.961,4.666Zm1.222-8.015a1.459,1.459,0,0,0-1.369.91L54.66,33.1h3.374l.668-1.853h4.113L63.2,33.1h2.979L63.592,20.69H60.848Z" transform="translate(-19.862 -7.518)"/></svg>